<?xml version="1.0" encoding="UTF-8"?>
<svg width="21px" height="20px" viewBox="0 0 21 20" version="1.1" xmlns="http://www.w3.org/2000/svg" xmlns:xlink="http://www.w3.org/1999/xlink">
    <!-- Generator: Sketch 55.1 (78136) - https://sketchapp.com -->
    <title>Calendar Icon</title>
    <desc>Created with Sketch.</desc>
    <g id="Calendar-Icon" stroke="none" stroke-width="1" fill="none" fill-rule="evenodd">
        <path d="M3.76119403,1 C2.25865553,1 1,2.38472776 1,4.13793103 L1,15.862069 C1,17.6152722 2.25865553,19 3.76119403,19 L17.238806,19 C18.7413445,19 20,17.6152722 20,15.862069 L20,4.13793103 C20,2.38472776 18.7413445,1 17.238806,1 L3.76119403,1 Z" id="Rectangle" stroke="#4388FF" stroke-width="2"></path>
        <path d="M0.157142857,5 L20,5" id="Line-5" stroke="#4388FF" stroke-width="2"></path>
        <path d="M4.09090909,8 L4.90909091,8 C5.51158336,8 6,8.48841664 6,9.09090909 L6,9.90909091 C6,10.5115834 5.51158336,11 4.90909091,11 L4.09090909,11 C3.48841664,11 3,10.5115834 3,9.90909091 L3,9.09090909 C3,8.48841664 3.48841664,8 4.09090909,8 Z" id="Rectangle" fill="#4388FF"></path>
        <path d="M4.09090909,13 L4.90909091,13 C5.51158336,13 6,13.4884166 6,14.0909091 L6,14.9090909 C6,15.5115834 5.51158336,16 4.90909091,16 L4.09090909,16 C3.48841664,16 3,15.5115834 3,14.9090909 L3,14.0909091 C3,13.4884166 3.48841664,13 4.09090909,13 Z" id="Rectangle-Copy" fill="#4388FF"></path>
        <path d="M8.09090909,8 L8.90909091,8 C9.51158336,8 10,8.48841664 10,9.09090909 L10,9.90909091 C10,10.5115834 9.51158336,11 8.90909091,11 L8.09090909,11 C7.48841664,11 7,10.5115834 7,9.90909091 L7,9.09090909 C7,8.48841664 7.48841664,8 8.09090909,8 Z" id="Rectangle-Copy-14" fill="#4388FF"></path>
        <path d="M8.09090909,13 L8.90909091,13 C9.51158336,13 10,13.4884166 10,14.0909091 L10,14.9090909 C10,15.5115834 9.51158336,16 8.90909091,16 L8.09090909,16 C7.48841664,16 7,15.5115834 7,14.9090909 L7,14.0909091 C7,13.4884166 7.48841664,13 8.09090909,13 Z" id="Rectangle-Copy-17" fill="#4388FF"></path>
        <path d="M12.0909091,8 L12.9090909,8 C13.5115834,8 14,8.48841664 14,9.09090909 L14,9.90909091 C14,10.5115834 13.5115834,11 12.9090909,11 L12.0909091,11 C11.4884166,11 11,10.5115834 11,9.90909091 L11,9.09090909 C11,8.48841664 11.4884166,8 12.0909091,8 Z" id="Rectangle-Copy-15" fill="#4388FF"></path>
        <path d="M12.0909091,13 L12.9090909,13 C13.5115834,13 14,13.4884166 14,14.0909091 L14,14.9090909 C14,15.5115834 13.5115834,16 12.9090909,16 L12.0909091,16 C11.4884166,16 11,15.5115834 11,14.9090909 L11,14.0909091 C11,13.4884166 11.4884166,13 12.0909091,13 Z" id="Rectangle-Copy-18" fill="#4388FF"></path>
        <path d="M16.0909091,8 L16.9090909,8 C17.5115834,8 18,8.48841664 18,9.09090909 L18,9.90909091 C18,10.5115834 17.5115834,11 16.9090909,11 L16.0909091,11 C15.4884166,11 15,10.5115834 15,9.90909091 L15,9.09090909 C15,8.48841664 15.4884166,8 16.0909091,8 Z" id="Rectangle-Copy-16" fill="#4388FF"></path>
    </g>
</svg>