<?xml version="1.0" encoding="UTF-8"?>
<svg width="432px" height="500px" viewBox="0 0 432 500" version="1.1" xmlns="http://www.w3.org/2000/svg" xmlns:xlink="http://www.w3.org/1999/xlink">
    <!-- Generator: Sketch 55.1 (78136) - https://sketchapp.com -->
    <title>doctor</title>
    <desc>Created with Sketch.</desc>
    <g id="Symbols" stroke="none" stroke-width="1" fill="none" fill-rule="evenodd">
        <g id="Doctor-Icon" fill="#000000" fill-rule="nonzero">
            <g id="doctor">
                <path d="M216,0 C162.124,0 118.304,43.832 118.304,97.708 L118.304,148.328 C118.304,202.208 162.124,246.04 216,246.04 C269.88,246.04 313.696,202.208 313.696,148.328 L313.696,97.708 C313.696,43.832 269.88,0 216,0 Z" id="Path"></path>
                <path d="M431.456,373.364 C400.172,320.052 350.168,280.528 290.656,262.072 C289.276,261.644 287.784,262.008 286.756,263.024 C259.072,290.32 224.672,311.616 216.072,316.76 C206.892,310.892 168.224,285.688 145.236,263.024 C144.212,262.008 142.708,261.644 141.336,262.072 C81.816,280.532 31.816,320.056 0.544,373.368 C-0.172,374.588 -0.172,376.104 0.544,377.324 C44.952,452.996 127.508,500.004 215.996,500.004 C304.488,500.004 387.048,452.996 431.456,377.324 C432.176,376.1 432.176,374.584 431.456,373.364 Z M348.872,402.508 C348.872,404.664 346.82,406.312 344.668,406.312 L318.208,406.312 C316.052,406.312 313.7,408.164 313.7,410.324 L313.7,437.688 C313.7,439.84 312.548,441.484 310.392,441.484 L286.628,441.484 C284.472,441.484 282.44,439.84 282.44,437.688 L282.44,410.324 C282.432,408.168 280.96,406.312 278.804,406.312 L251.204,406.312 C249.048,406.312 247.264,404.66 247.264,402.508 L247.264,378.948 C247.264,376.792 249.048,375.052 251.204,375.052 L278.804,375.052 C280.96,375.052 282.432,373.292 282.432,371.132 L282.432,343.736 C282.432,341.58 284.464,339.88 286.62,339.88 L310.128,339.88 C312.28,339.88 313.696,341.58 313.696,343.736 L313.696,371.212 C313.696,373.372 315.784,375.048 317.944,375.048 L344.668,375.048 C346.82,375.048 348.872,376.872 348.872,379.028 L348.872,402.508 L348.872,402.508 Z" id="Shape"></path>
            </g>
        </g>
    </g>
</svg>