<?xml version="1.0" encoding="UTF-8"?>
<svg width="15px" height="14px" viewBox="0 0 15 14" version="1.1" xmlns="http://www.w3.org/2000/svg" xmlns:xlink="http://www.w3.org/1999/xlink">
    <!-- Generator: Sketch 55.1 (78136) - https://sketchapp.com -->
    <title>enter</title>
    <desc>Created with Sketch.</desc>
    <g id="Symbols" stroke="none" stroke-width="1" fill="none" fill-rule="evenodd">
        <g id="Calendar" transform="translate(-1138.000000, -278.000000)" fill="#BCBCBC">
            <g id="enter" transform="translate(1138.000000, 278.000000)">
                <path d="M14,10.899 L8.999,14 L8.999,11 L7.5,11 C6.671,11 6,10.328 6,9.5 L6,9.333 L8,8 L8,9 L8.999,9 L8.999,3 L10.666,2 L8,2 L8,3 L6,1.667 L6,1.5 C6,0.672 6.671,0 7.5,0 L13.5,0 C13.633,0 13.752,0.043 13.874,0.076 L14,0.101 C14.58,0.308 15.001,0.849 15.001,1.5 L15.001,9.5 C15.001,10.151 14.58,10.692 14,10.899 Z M7.981,5.493 L3.999,8 L3.999,6 L0,6 L0,5 L3.999,5 L3.999,3 L7.981,5.493 Z" id="Shape"></path>
            </g>
        </g>
    </g>
</svg>