<?xml version="1.0" encoding="UTF-8"?>
<svg width="17px" height="17px" viewBox="0 0 17 17" version="1.1" xmlns="http://www.w3.org/2000/svg" xmlns:xlink="http://www.w3.org/1999/xlink">
    <!-- Generator: Sketch 55.1 (78136) - https://sketchapp.com -->
    <title>Lock Icon</title>
    <desc>Created with Sketch.</desc>
    <g id="Calendar" stroke="none" stroke-width="1" fill="none" fill-rule="evenodd" stroke-linecap="round" stroke-linejoin="round">
        <g id="Calendar-/-Entry-Point" transform="translate(-440.000000, -545.000000)" stroke="#979797">
            <g id="Lock-Icon" transform="translate(441.000000, 546.000000)">
                <path d="M7.5,5.77332783 C7.50803419,5.77312704 7.51609533,5.77302632 7.5241834,5.77302632 C9.95240621,5.77302632 12.2237348,6.13528234 12.8015364,6.44490678 C13.3793379,6.75453122 13.8328,7.2088925 14.1418117,7.78783987 C14.4508233,8.36678724 14.6153846,9.0367558 14.6153846,10.0461139 L14.6153846,10.5788861 C14.6153846,11.5882442 14.4508233,12.2582128 14.1418117,12.8371601 C13.8328,13.4161075 13.3793379,13.8704688 12.8015364,14.1800932 C12.2237348,14.4897177 9.95240621,14.8519737 7.5241834,14.8519737 C7.51609533,14.8519737 7.50803419,14.851873 7.5,14.8516722 C7.49196581,14.851873 7.48390467,14.8519737 7.4758166,14.8519737 C5.04759379,14.8519737 2.77626521,14.4897177 2.19846363,14.1800932 C1.62066205,13.8704688 1.16719999,13.4161075 0.858188323,12.8371601 C0.549176656,12.2582128 0.384615385,11.5882442 0.384615385,10.5788861 L0.384615385,10.0461139 C0.384615385,9.0367558 0.549176656,8.36678724 0.858188323,7.78783987 C1.16719999,7.2088925 1.62066205,6.75453122 2.19846363,6.44490678 C2.77626521,6.13528234 5.04759379,5.77302632 7.4758166,5.77302632 C7.48390467,5.77302632 7.49196581,5.77312704 7.5,5.77332783 L7.5,5.77332783 Z" id="Path"></path>
                <path d="M4.42307692,5.92105263 L4.42307692,3.13450002 C4.42307692,1.40336346 5.84371185,0 7.59615385,0 C9.34859584,0 10.7692308,1.40336346 10.7692308,3.13450002 L10.7692308,5.92105263" id="Path"></path>
                <ellipse id="Oval" cx="7.59615385" cy="10.3618421" rx="1.63461538" ry="1.67763158"></ellipse>
            </g>
        </g>
    </g>
</svg>