<?xml version="1.0" encoding="UTF-8"?>
<svg width="76px" height="77px" viewBox="0 0 76 77" version="1.1" xmlns="http://www.w3.org/2000/svg" xmlns:xlink="http://www.w3.org/1999/xlink">
    <!-- Generator: Sketch 55.1 (78136) - https://sketchapp.com -->
    <title>Lock Icon</title>
    <desc>Created with Sketch.</desc>
    <g id="Lock-Icon" stroke="none" stroke-width="1" fill="none" fill-rule="evenodd" stroke-linecap="round">
        <path d="M38,30.0015277 C38.0417778,30.0005104 38.0836957,30 38.1257537,30 C50.7525123,30 62.5634209,31.8354305 65.5679891,33.4041943 C68.5725573,34.9729582 70.9305601,37.2750553 72.5374207,40.2083887 C74.1442814,43.141722 75,46.5362294 75,51.6503105 L75,54.3496895 C75,59.4637706 74.1442814,62.858278 72.5374207,65.7916113 C70.9305601,68.7249447 68.5725573,71.0270418 65.5679891,72.5958057 C62.5634209,74.1645695 50.7525123,76 38.1257537,76 C38.0836957,76 38.0417778,75.9994896 38,75.9984723 C37.9582222,75.9994896 37.9163043,76 37.8742463,76 C25.2474877,76 13.4365791,74.1645695 10.4320109,72.5958057 C7.42744267,71.0270418 5.06943995,68.7249447 3.46257928,65.7916113 C1.85571861,62.858278 1,59.4637706 1,54.3496895 L1,51.6503105 C1,46.5362294 1.85571861,43.141722 3.46257928,40.2083887 C5.06943995,37.2750553 7.42744267,34.9729582 10.4320109,33.4041943 C13.4365791,31.8354305 25.2474877,30 37.8742463,30 C37.9163043,30 37.9582222,30.0005104 38,30.0015277 L38,30.0015277 Z" id="Path" stroke="#979797" stroke-width="2"></path>
        <path d="M22,31 L22,16.8814668 C22,8.11037486 29.3873016,1 38.5,1 C47.6126984,1 55,8.11037486 55,16.8814668 L55,31" id="Path" stroke="#979797" stroke-width="2"></path>
        <circle id="Oval" stroke="#979797" stroke-width="2" cx="38.5" cy="53.5" r="8.5"></circle>
    </g>
</svg>