<?xml version="1.0" encoding="UTF-8"?>
<svg width="17px" height="16px" viewBox="0 0 17 16" version="1.1" xmlns="http://www.w3.org/2000/svg" xmlns:xlink="http://www.w3.org/1999/xlink">
    <!-- Generator: Sketch 55.1 (78136) - https://sketchapp.com -->
    <title>Note</title>
    <desc>Created with Sketch.</desc>
    <g id="Symbols" stroke="none" stroke-width="1" fill="none" fill-rule="evenodd" stroke-linecap="round" stroke-linejoin="round">
        <g id="Timeline-Menu" transform="translate(-12.000000, -127.000000)" stroke="#979797">
            <g id="Note" transform="translate(13.000000, 128.000000)">
                <path d="M5.38814247,11.253581 L1.47541323,14 L1.87991856,10.1464369 C1.38167806,9.75667087 0.974358854,9.27027452 0.667831759,8.69711869 C0.232064028,7.88230387 -1.28864507e-16,6.90200172 1.09401886e-16,5.70572421 L2.43936738e-16,5.54928022 C-2.8733314e-16,4.35300271 0.232064028,3.37270056 0.667831759,2.55788574 C1.10359949,1.74307093 1.74307093,1.10359949 2.55788574,0.667831759 C3.37270056,0.232064028 4.35300271,1.18851475e-16 5.54928022,-1.00901139e-16 L9.45071978,1.00901139e-16 C10.6469973,-1.18851475e-16 11.6272994,0.232064028 12.4421143,0.667831759 C13.2569291,1.10359949 13.8964005,1.74307093 14.3321682,2.55788574 C14.767936,3.37270056 15,4.35300271 15,5.54928022 L15,5.70572421 C15,6.90200172 14.767936,7.88230387 14.3321682,8.69711869 C13.8964005,9.5119335 13.2569291,10.1514049 12.4421143,10.5871727 C11.6272994,11.0229404 10.6469973,11.2550044 9.45071978,11.2550044 L5.54928022,11.2550044 C5.49512689,11.2550044 5.44141615,11.2545289 5.3881433,11.2535804 Z" id="Combined-Shape"></path>
            </g>
        </g>
    </g>
</svg>