<?xml version="1.0" encoding="UTF-8"?>
<svg width="21px" height="21px" viewBox="0 0 21 21" version="1.1" xmlns="http://www.w3.org/2000/svg" xmlns:xlink="http://www.w3.org/1999/xlink">
    <!-- Generator: Sketch 55.1 (78136) - https://sketchapp.com -->
    <title>Outlined/UI/notification</title>
    <desc>Created with Sketch.</desc>
    <g id="Calendar" stroke="none" stroke-width="1" fill="none" fill-rule="evenodd">
        <g id="Calendar-/-Entry-Point" transform="translate(-1389.000000, -26.000000)" fill="#252C32">
            <g id="Outlined/UI/notification" transform="translate(1388.000000, 25.000000)">
                <path d="M21.5625,17.25 C19.180772,17.25 17.25,15.319228 17.25,12.9375 L17.25,10.0625 C17.2462429,7.6131453 15.6912759,5.43503751 13.3759375,4.63593748 C13.5562076,4.31791938 13.6526664,3.95929064 13.65625,3.59374998 C13.65625,2.40288598 12.690864,1.43749997 11.5,1.43749997 C10.309136,1.43749997 9.34374999,2.40288598 9.34374999,3.59374998 C9.34733362,3.95929064 9.44379239,4.31791938 9.62406249,4.63593748 C7.30872414,5.43503751 5.75375712,7.6131453 5.74999998,10.0625 L5.74999998,12.9375 C5.74999998,15.319228 3.81922796,17.25 1.43749997,17.25 L1.43749997,18.6875 L7.97812499,18.6875 C8.31972428,20.3609881 9.7920034,21.5628486 11.5,21.5625 C13.2457417,21.6700049 14.7814353,20.4189307 15.0290625,18.6875 L21.5625,18.6875 L21.5625,17.25 Z M10.78125,3.59374998 C10.78125,3.19679531 11.1030453,2.87499997 11.5,2.87499997 C11.8969547,2.87499997 12.21875,3.19679531 12.21875,3.59374998 C12.21875,3.99070464 11.8969547,4.31249998 11.5,4.31249998 C11.1030453,4.31249998 10.78125,3.99070464 10.78125,3.59374998 Z M11.5,20.125 C10.5884418,20.1224381 9.77697534,19.54693 9.47312499,18.6875 L13.555625,18.6875 C13.3137738,19.6046239 12.4444266,20.212559 11.5,20.125 Z M5.23968748,17.25 C6.4777784,16.1586575 7.18722665,14.5879234 7.18749999,12.9375 L7.18749999,10.0625 C7.18749999,7.680772 9.11827201,5.74999998 11.5,5.74999998 C13.881728,5.74999998 15.8125,7.680772 15.8125,10.0625 L15.8125,12.9375 C15.8127734,14.5879234 16.5222216,16.1586575 17.7603125,17.25 L5.23968748,17.25 Z" id="Style"></path>
            </g>
        </g>
    </g>
</svg>