<?xml version="1.0" encoding="UTF-8"?>
<svg width="87px" height="62px" viewBox="0 0 87 62" version="1.1" xmlns="http://www.w3.org/2000/svg" xmlns:xlink="http://www.w3.org/1999/xlink">
    <!-- Generator: Sketch 55.1 (78136) - https://sketchapp.com -->
    <title>Payment Icon</title>
    <desc>Created with Sketch.</desc>
    <g id="Payment-Icon" stroke="none" stroke-width="1" fill="none" fill-rule="evenodd" stroke-linecap="round">
        <path d="M18.9471964,1 L68.0528036,1 C74.2934348,1 76.5564384,1.64977928 78.8379199,2.86992893 C81.1194014,4.09007857 82.9099214,5.88059859 84.1300711,8.16208008 C85.3502207,10.4435616 86,12.7065652 86,18.9471964 L86,43.0528036 C86,49.2934348 85.3502207,51.5564384 84.1300711,53.8379199 C82.9099214,56.1194014 81.1194014,57.9099214 78.8379199,59.1300711 C76.5564384,60.3502207 74.2934348,61 68.0528036,61 L18.9471964,61 C12.7065652,61 10.4435616,60.3502207 8.16208008,59.1300711 C5.88059859,57.9099214 4.09007857,56.1194014 2.86992893,53.8379199 C1.64977928,51.5564384 1,49.2934348 1,43.0528036 L1,18.9471964 C1,12.7065652 1.64977928,10.4435616 2.86992893,8.16208008 C4.09007857,5.88059859 5.88059859,4.09007857 8.16208008,2.86992893 C10.4435616,1.64977928 12.7065652,1 18.9471964,1 Z" id="Rectangle" stroke="#979797" stroke-width="2"></path>
        <path d="M62,34 L69,34 C71.209139,34 73,35.790861 73,38 L73,41 C73,43.209139 71.209139,45 69,45 L62,45 C59.790861,45 58,43.209139 58,41 L58,38 C58,35.790861 59.790861,34 62,34 Z" id="Rectangle" stroke="#979797" stroke-width="2"></path>
        <path d="M13,45.5 L44,45.5" id="Line-8" stroke="#979797" stroke-width="2"></path>
    </g>
</svg>