<?xml version="1.0" encoding="UTF-8"?>
<svg width="18px" height="13px" viewBox="0 0 18 13" version="1.1" xmlns="http://www.w3.org/2000/svg" xmlns:xlink="http://www.w3.org/1999/xlink">
    <!-- Generator: Sketch 55.1 (78136) - https://sketchapp.com -->
    <title>Payment Icon</title>
    <desc>Created with Sketch.</desc>
    <g id="Symbols" stroke="none" stroke-width="1" fill="none" fill-rule="evenodd" stroke-linecap="round" stroke-linejoin="round">
        <g id="Timeline-Menu" transform="translate(-11.000000, -90.000000)" stroke="#979797">
            <g id="Payment-Icon" transform="translate(12.000000, 91.000000)">
                <path d="M3.37829579,0 L12.6217042,0 C13.7964113,0 14.2223884,0.119126201 14.6518438,0.342820303 C15.0812991,0.566514405 15.4183382,0.894776409 15.6480134,1.31304801 C15.8776886,1.73131962 16,2.14620362 16,3.29031934 L16,7.70968066 C16,8.85379638 15.8776886,9.26868038 15.6480134,9.68695199 C15.4183382,10.1052236 15.0812991,10.4334856 14.6518438,10.6571797 C14.2223884,10.8808738 13.7964113,11 12.6217042,11 L3.37829579,11 C2.20358875,11 1.77761159,10.8808738 1.34815625,10.6571797 C0.918700912,10.4334856 0.581661849,10.1052236 0.351986621,9.68695199 C0.122311394,9.26868038 0,8.85379638 0,7.70968066 L0,3.29031934 C0,2.14620362 0.122311394,1.73131962 0.351986621,1.31304801 C0.581661849,0.894776409 0.918700912,0.566514405 1.34815625,0.342820303 C1.77761159,0.119126201 2.20358875,0 3.37829579,0 Z" id="Rectangle"></path>
                <path d="M11.4823529,6.05 L12.8,6.05 C13.2158379,6.05 13.5529412,6.37832452 13.5529412,6.78333333 L13.5529412,7.33333333 C13.5529412,7.73834215 13.2158379,8.06666667 12.8,8.06666667 L11.4823529,8.06666667 C11.066515,8.06666667 10.7294118,7.73834215 10.7294118,7.33333333 L10.7294118,6.78333333 C10.7294118,6.37832452 11.066515,6.05 11.4823529,6.05 Z" id="Rectangle"></path>
                <path d="M2.25882353,8.06666667 L8.09411765,8.06666667" id="Line-8"></path>
            </g>
        </g>
    </g>
</svg>