<?xml version="1.0" encoding="UTF-8"?>
<svg width="15px" height="18px" viewBox="0 0 15 18" version="1.1" xmlns="http://www.w3.org/2000/svg" xmlns:xlink="http://www.w3.org/1999/xlink">
    <!-- Generator: Sketch 55.1 (78136) - https://sketchapp.com -->
    <title>Outlined/UI/refresh Copy</title>
    <desc>Created with Sketch.</desc>
    <g id="Symbols" stroke="none" stroke-width="1" fill="none" fill-rule="evenodd">
        <g id="Fixed-Filter-PopUp" transform="translate(-170.000000, -17.000000)" fill="#437FFF">
            <g id="Outlined/UI/refresh" transform="translate(168.000000, 17.000000)">
                <path d="M9.9215625,12.538125 L11.875,14.394375 C12.3354218,14.8331672 12.3354218,15.5418329 11.875,15.980625 L9.9215625,17.836875 L9.0784375,17.038125 L10.4440625,15.75 L9.5,15.75 C6.61646489,15.7521498 4.01585334,14.1075402 2.91206516,11.5838333 C1.80827697,9.06012639 2.41895987,6.15495312 4.45906248,4.22437499 L5.30218749,5.02312499 C3.60460923,6.63184267 3.09686991,9.05083097 4.01566199,11.1524319 C4.93445406,13.2540328 7.09889935,14.6245143 9.5,14.625 L10.4440625,14.625 L9.0784375,13.336875 L9.9215625,12.538125 Z M9.5,2.24999998 C12.3835351,2.24785017 14.9841467,3.89245983 16.0879348,6.41616672 C17.191723,8.93987361 16.5810401,11.8450469 14.5409375,13.775625 L13.6978125,12.976875 C15.3953908,11.3681573 15.9031301,8.94916903 14.984338,6.8475681 C14.0655459,4.74596717 11.9011007,3.37548569 9.5,3.37499998 L8.5559375,3.37499998 L9.9215625,4.66312497 L9.0784375,5.46187499 L7.12499999,3.60562498 C6.66457822,3.16683285 6.66457822,2.45816712 7.12499999,2.01937498 L9.0784375,0.163124972 L9.9215625,0.961874974 L8.5559375,2.24999998 L9.5,2.24999998 Z" id="Style"></path>
            </g>
        </g>
    </g>
</svg>