<?xml version="1.0" encoding="UTF-8"?>
<svg width="18px" height="20px" viewBox="0 0 18 20" version="1.1" xmlns="http://www.w3.org/2000/svg" xmlns:xlink="http://www.w3.org/1999/xlink">
    <!-- Generator: Sketch 55.1 (78136) - https://sketchapp.com -->
    <title>Combined Shape</title>
    <desc>Created with Sketch.</desc>
    <g id="Symbols" stroke="none" stroke-width="1" fill="none" fill-rule="evenodd">
        <g id="Search-Icon" transform="translate(-1.000000, -1.000000)" fill="#D8D8D8">
            <path d="M8.25194077,14.9952991 C4.19951966,14.8923444 0.946056217,11.5749969 0.946056217,7.49776223 C0.946056217,3.35562661 4.30392059,-0.0022377677 8.44605622,-0.0022377677 C12.5881918,-0.0022377677 15.9460562,3.35562661 15.9460562,7.49776223 C15.9460562,11.0913103 13.4187293,14.0945694 10.0445707,14.8270445 L10.5186416,21.6065739 C10.5533145,22.1024194 10.1794602,22.5324895 9.68361474,22.5671624 C9.18776927,22.6018353 8.75769916,22.227981 8.72302627,21.7321355 L8.25194077,14.9952991 Z M8.44605622,13.4977622 C11.7597647,13.4977622 14.4460562,10.8114707 14.4460562,7.49776223 C14.4460562,4.18405373 11.7597647,1.49776223 8.44605622,1.49776223 C5.13234772,1.49776223 2.44605622,4.18405373 2.44605622,7.49776223 C2.44605622,10.8114707 5.13234772,13.4977622 8.44605622,13.4977622 Z" id="Combined-Shape" transform="translate(8.446056, 11.283577) rotate(-315.000000) translate(-8.446056, -11.283577) "></path>
        </g>
    </g>
</svg>