<?xml version="1.0" encoding="UTF-8"?>
<svg width="18px" height="19px" viewBox="0 0 18 19" version="1.1" xmlns="http://www.w3.org/2000/svg" xmlns:xlink="http://www.w3.org/1999/xlink">
    <!-- Generator: Sketch 55.1 (78136) - https://sketchapp.com -->
    <title>Outlined/UI/time Copy 2</title>
    <desc>Created with Sketch.</desc>
    <g id="New-Appointment" stroke="none" stroke-width="1" fill="none" fill-rule="evenodd">
        <g id="New-Appointment-/-Repeat-Pop-Up" transform="translate(-574.000000, -230.000000)" fill="#CCCCCC">
            <g id="Outlined/UI/time" transform="translate(573.000000, 229.000000)">
                <path d="M10,1.31249997 C12.3206443,1.31249997 14.546241,2.28046595 16.1871844,4.00345643 C17.8281277,5.72644691 18.75,8.06332349 18.75,10.5 C18.75,15.5741162 14.8324916,19.6875 10,19.6875 C5.16750842,19.6875 1.24999997,15.5741162 1.24999997,10.5 C1.24999997,5.42588385 5.16750842,1.31249997 10,1.31249997 Z M9.99999998,18.375 C11.9891237,18.375 13.896778,17.5453149 15.3033009,16.0684659 C16.7098237,14.5916169 17.5,12.5885799 17.5,10.5 C17.5,6.15075758 14.1421356,2.62499998 9.99999998,2.62499998 C5.85786436,2.62499998 2.49999998,6.15075758 2.49999998,10.5 C2.49999998,14.8492424 5.85786436,18.375 9.99999998,18.375 Z M10.625,4.59374998 L10.625,10.185 L13.5125,12.613125 L12.7375,13.636875 L9.84375,11.20875 C9.54767092,10.9598445 9.37523702,10.5832489 9.375,10.185 L9.375,4.59374998 L10.625,4.59374998 Z" id="Style"></path>
            </g>
        </g>
    </g>
</svg>