<?xml version="1.0" encoding="UTF-8"?>
<svg width="16px" height="17px" viewBox="0 0 16 17" version="1.1" xmlns="http://www.w3.org/2000/svg" xmlns:xlink="http://www.w3.org/1999/xlink">
    <!-- Generator: Sketch 55.1 (78136) - https://sketchapp.com -->
    <title>User Icon</title>
    <desc>Created with Sketch.</desc>
    <g id="Symbols" stroke="none" stroke-width="1" fill="none" fill-rule="evenodd" stroke-linecap="round" stroke-linejoin="round">
        <g id="Timeline-Menu" transform="translate(-12.000000, -50.000000)" stroke="#979797">
            <g id="User-Icon" transform="translate(13.000000, 51.000000)">
                <path d="M7,7.89473684 C9.23247497,7.89473684 11.0422535,6.1274398 11.0422535,3.94736842 C11.0422535,1.76729704 9.23247497,0 7,0 C4.76752503,0 2.95774648,1.76729704 2.95774648,3.94736842 C2.95774648,6.1274398 4.76752503,7.89473684 7,7.89473684 Z M6.96790744,15 C6.95754555,15 6.94723856,15 6.93698621,14.999907 C4.13157702,14.9943959 2.85627517,14.7451306 1.93156848,14.5345124 C0.996476089,14.3215286 -0.339837476,13.6894756 0.0791495248,12.5324045 C0.513028441,11.3342081 3.11140637,9.09767704 7,9.11472039 C10.8885936,9.13176375 13.4869716,11.3342081 13.9208505,12.5324045 C14.3398375,13.6894756 13.0035239,14.3215286 12.0684315,14.5345124 C11.1437248,14.7451306 9.86842298,14.9943959 7.06301379,14.999907 C7.05276144,15 7.04245445,15 7.03209256,15 C7.02137341,15 7.01067624,15 7,15 C6.98932441,15 6.97862692,15 6.96790744,15 Z" id="Combined-Shape"></path>
            </g>
        </g>
    </g>
</svg>