<?xml version="1.0" encoding="UTF-8"?>
<svg width="73px" height="78px" viewBox="0 0 73 78" version="1.1" xmlns="http://www.w3.org/2000/svg" xmlns:xlink="http://www.w3.org/1999/xlink">
    <!-- Generator: Sketch 55.1 (78136) - https://sketchapp.com -->
    <title>User Icon</title>
    <desc>Created with Sketch.</desc>
    <g id="User-Icon" stroke="none" stroke-width="1" fill="none" fill-rule="evenodd" stroke-linecap="round">
        <path d="M36.5,41 C47.8218374,41 57,32.045695 57,21 C57,9.954305 47.8218374,1 36.5,1 C25.1781626,1 16,9.954305 16,21 C16,32.045695 25.1781626,41 36.5,41 Z M36.3372449,77 C36.2846953,77 36.2324241,77 36.1804301,76.9995286 C21.9529977,76.9716061 15.4853955,75.7086616 10.7958116,74.6415292 C6.05355731,73.5624116 -0.723461485,70.3600095 1.40140116,64.4975162 C3.60178709,58.4266543 16.7792752,47.094897 36.5,47.18125 C56.2207248,47.267603 69.3982129,58.4266543 71.5985988,64.4975162 C73.7234615,70.3600095 66.9464427,73.5624116 62.2041884,74.6415292 C57.5146045,75.7086616 51.0470023,76.9716061 36.8195699,76.9995286 C36.7675759,77 36.7153047,77 36.6627551,77 C36.6083937,77 36.5541438,77 36.5,77 C36.4458595,77 36.391608,77 36.3372449,77 Z" id="Combined-Shape" stroke="#979797" stroke-width="2"></path>
    </g>
</svg>